<svg xmlns="http://www.w3.org/2000/svg" xmlns:xlink="http://www.w3.org/1999/xlink" viewBox="0 0 488.82 167.12"><defs><linearGradient id="linear-gradient" x1="-12.72" y1="83.42" x2="456.08" y2="59.17" gradientUnits="userSpaceOnUse"><stop offset="0" stop-color="#06ea72"></stop><stop offset="0.86" stop-color="#27f2cd"></stop></linearGradient><linearGradient id="linear-gradient-2" x1="-12.54" y1="86.92" x2="456.26" y2="62.67" xlink:href="#linear-gradient"></linearGradient><linearGradient id="linear-gradient-3" x1="-11.91" y1="99.16" x2="456.9" y2="74.91" xlink:href="#linear-gradient"></linearGradient><linearGradient id="linear-gradient-4" x1="-12.4" y1="89.7" x2="456.41" y2="65.45" xlink:href="#linear-gradient"></linearGradient><linearGradient id="linear-gradient-5" x1="-12.09" y1="95.73" x2="456.72" y2="71.48" xlink:href="#linear-gradient"></linearGradient><linearGradient id="linear-gradient-6" x1="-10.37" y1="129" x2="458.44" y2="104.75" xlink:href="#linear-gradient"></linearGradient><linearGradient id="linear-gradient-7" x1="-11.26" y1="111.78" x2="457.55" y2="87.53" xlink:href="#linear-gradient"></linearGradient><linearGradient id="linear-gradient-8" x1="-11.12" y1="114.48" x2="457.69" y2="90.23" xlink:href="#linear-gradient"></linearGradient><linearGradient id="linear-gradient-9" x1="-11.8" y1="101.26" x2="457.01" y2="77.01" xlink:href="#linear-gradient"></linearGradient><linearGradient id="linear-gradient-10" x1="50.24" y1="151.55" x2="69.36" y2="151.55" xlink:href="#linear-gradient"></linearGradient><linearGradient id="linear-gradient-11" x1="148.92" y1="151.61" x2="168.34" y2="151.61" xlink:href="#linear-gradient"></linearGradient><linearGradient id="linear-gradient-12" x1="283.66" y1="151.7" x2="302.32" y2="151.7" xlink:href="#linear-gradient"></linearGradient></defs><g id="Layer_2" data-name="Layer 2"><g id="Layer_1-2" data-name="Layer 1"><polygon points="190.39 0.06 143.31 0 140.43 9.34 156.61 9.36 145.81 45.94 159.52 45.96 170.31 9.39 170.81 9.39 170.82 9.38 187.51 9.4 190.39 0.06" style="fill:#fff"></polygon><path d="M219.63,17.64a10.05,10.05,0,0,0-4.46-4.38,16.27,16.27,0,0,0-7.44-1.55,22.37,22.37,0,0,0-4.54.48l-3.92,12.67a8.81,8.81,0,0,1,4.65-1.22c6.32,0,5,5.86,5,5.92L203.63,46.7H215s3.58-11.55,4.76-15.41A22.75,22.75,0,0,0,221,23.85,13.34,13.34,0,0,0,219.63,17.64Z" style="fill:#fff"></path><path d="M204.31.6l-11.86,0-14.21,46h.56l0,.09h11.31L195.22,30l.16-.46,5.17-16.7h0Z" style="fill:#fff"></path><path d="M258.29,21a9.32,9.32,0,0,0-4.45-5.81,15.16,15.16,0,0,0-7.32-1.78,27.49,27.49,0,0,0-11.21,2.22,23.32,23.32,0,0,0-8.39,6.16A25,25,0,0,0,222,30.7a16.38,16.38,0,0,0-.65,2.61c0,.16,0,.3-.05.45h12.19l23.28,0,.74-2.39Q259.5,25.05,258.29,21Zm-10.78,6.86H234.73a10.36,10.36,0,0,1,3.41-5.15,8.4,8.4,0,0,1,5.39-2c2,0,3.33.65,4,1.95S248.18,25.72,247.51,27.88Z" style="fill:#fff"></path><path d="M233.91,36.15l-12.77,0a14.27,14.27,0,0,0,0,1.47,10.31,10.31,0,0,0,2.16,5.46,11.37,11.37,0,0,0,4.93,3.51,19.08,19.08,0,0,0,7.14,1.23h6l2.69-8.7h-5.19C238.71,39.09,235.12,39,233.91,36.15Z" style="fill:#fff"></path><polygon points="27.32 37.14 0 125.56 26.45 125.6 37.11 91.08 37.13 91.08 43.75 69.65 43.73 69.65 53.76 37.17 27.32 37.14" style="fill:url(#linear-gradient)"></polygon><polygon points="93.56 37.23 83.53 69.7 50.33 69.66 43.71 91.09 76.9 91.14 66.24 125.65 92.63 125.69 119.94 37.26 93.56 37.23" style="fill:url(#linear-gradient-2)"></polygon><path d="M178.88,87.89,188,58.42l-21.77,0L156.08,91.18c-.39,1.26-4.22,12.33-16.75,12.32-12.17,0-9.67-11.3-9.63-11.41l10.42-33.73-22,0S111.28,80.59,109,88s-2.39,11.5-2.39,14.34a25.87,25.87,0,0,0,2.71,12,19.51,19.51,0,0,0,8.59,8.43c3.79,2,8.61,3,14.32,3a44.6,44.6,0,0,0,14.64-2.46,47.17,47.17,0,0,0,13.72-7.61,51.66,51.66,0,0,0,10.9-11.8,54.38,54.38,0,0,0,7-14.53C178.61,88.81,178.77,88.28,178.88,87.89Z" style="fill:url(#linear-gradient-3)"></path><path d="M276.24,103.18q-1.31-2.43.08-6.89L283,74.53l25.92,0,5.49-17.79-25.92,0,9.36-30.31-22.84,0-21.22,68.7A30.89,30.89,0,0,0,252.47,108a14.81,14.81,0,0,0,5.65,10.06c3.12,2.51,6.74,4,16.62,4.18h0l18.56,0,5.17-16.73-17.8,0C278.54,105.44,277,104.66,276.24,103.18Z" style="fill:url(#linear-gradient-4)"></path><path d="M326.86,96l44.83.06,1.42-4.6q3.79-12.24,1.47-20T366,60.26a29,29,0,0,0-14.1-3.43,52.56,52.56,0,0,0-21.58,4.28A45,45,0,0,0,314.17,73a48.26,48.26,0,0,0-9.44,17.13,31.35,31.35,0,0,0-1.25,5c-.06.3-.05.57-.1.86l23.48,0Zm8.92-21.28a16.09,16.09,0,0,1,10.38-3.78q5.76,0,7.67,3.74t0,10l-24.61,0A20.05,20.05,0,0,1,335.78,74.71Z" style="fill:url(#linear-gradient-5)"></path><path d="M327.62,100.57l-24.59,0c0,.95,0,1.91.08,2.84a19.84,19.84,0,0,0,4.17,10.5,21.71,21.71,0,0,0,9.49,6.76A36.82,36.82,0,0,0,330.52,123l1.55,0h10l5.18-16.76h-10C336.86,106.24,330,106.08,327.62,100.57Z" style="fill:url(#linear-gradient-6)"></path><path d="M429.17,74.47l5.17-16.72-18.57,0v0c-10,.13-14.52,1.63-19.19,4.13a35.12,35.12,0,0,0-11.86,10,42.89,42.89,0,0,0-6.62,12.91l-11.81,38.25,22.84,0L401.3,83.7a14.46,14.46,0,0,1,4.18-6.88,9.54,9.54,0,0,1,5.89-2.37Z" style="fill:url(#linear-gradient-7)"></path><path d="M457.67,75.6l25.66,0,5.49-17.78-26.07,0c-4.23,0-10.32.68-14.72,2.52a28.85,28.85,0,0,0-10.3,7.07,25.88,25.88,0,0,0-5.7,9.82,16.16,16.16,0,0,0-.36,9.81,14.51,14.51,0,0,0,4.56,6.75,36.65,36.65,0,0,0,7.43,4.69c.75.35,1.56.69,2.37,1a20.64,20.64,0,0,1,4.19,2.08,1.85,1.85,0,0,1,.66,2c-.06.13-.46.82-1.88.82l-42.33-.06-5.78,18.7H444.8c4.32-.17,10.27-.86,14-2.27a31,31,0,0,0,11-7,26.11,26.11,0,0,0,6.6-10.91c1.17-3.79,1.26-7,.26-9.65a15.26,15.26,0,0,0-5-6.58,45.7,45.7,0,0,0-6.6-3.8c-1.31-.68-2.68-1.38-4-2.09-.88-.5-1.89-1-2.83-1.42A14.67,14.67,0,0,1,455.76,78a1.18,1.18,0,0,1-.27-1.24C455.69,76.1,455.84,75.6,457.67,75.6Z" style="fill:url(#linear-gradient-8)"></path><ellipse cx="225.41" cy="98.96" rx="4.76" ry="3.77" transform="translate(44.1 265.48) rotate(-66.27)" style="fill:#fff"></ellipse><ellipse cx="207" cy="98.96" rx="4.76" ry="3.77" transform="translate(33.1 248.62) rotate(-66.27)" style="fill:#fff"></ellipse><path d="M250.71,66.24a19.56,19.56,0,0,0-8.59-8.43c-3.79-2-8.61-3-14.32-3a44.34,44.34,0,0,0-14.64,2.46,46.9,46.9,0,0,0-13.72,7.6,51.7,51.7,0,0,0-10.9,11.81,54.29,54.29,0,0,0-7,14.52c-.16.53-.32,1.06-.43,1.46L172,122.15h8.79c.06-.25.09-.49.15-.74,3.24-12.86,14.48-32.67,25.53-37.38l-.68-5.22a3.23,3.23,0,0,1-1.73-2,3.72,3.72,0,0,1,1.72-4.49,2.81,2.81,0,0,1,3.76,2,3.7,3.7,0,0,1-1.71,4.48,2.49,2.49,0,0,1-.44.14l.73,4.45A28.44,28.44,0,0,1,218,81.59a20.32,20.32,0,0,1,13.29,4.76l3.06-3.12a3.78,3.78,0,0,1-1-2.63,3,3,0,1,1,2.93,3.48,2.22,2.22,0,0,1-.45,0l-3.22,3.53c5.57,5.71,6.25,23.8,3.62,34.25,0,.15-.09.28-.13.42h5.75L251,92.57c2.31-7.47,2.4-11.51,2.4-14.35A25.9,25.9,0,0,0,250.71,66.24Z" style="fill-rule:evenodd;fill:url(#linear-gradient-9)"></path><path d="M50.31,159.22c.32-.85,4.29-13,4.89-14.89.32-1,.62-1.53,1.57-1.53h8c4.28,0,5.33,2.69,4.15,6.37l-1.56,5.09a8.47,8.47,0,0,1-7.83,6H51A.73.73,0,0,1,50.31,159.22Zm4.56-2.16h5.38a4.41,4.41,0,0,0,4-3l1.49-4.64c.67-2.08,0-3.29-1.68-3.29-1.26,0-1.87-.08-5.58,0-.46,0-.69.13-.94.92l-3,9.4C54.34,156.79,54.52,157.06,54.87,157.06Z" style="fill:url(#linear-gradient-10)"></path><path d="M72,160.31c-.82,0-.8,0-1.28,0-.82,0-1-.11-.75-1L73.61,148c.17-.52.36-1,1.36-1H76.1c.89,0,.56.63.33,1.34l-3.62,11.2A1.22,1.22,0,0,1,72,160.31Zm3.57-19.53c.13-.39.19-.66.84-.71.34,0,2,0,2.62,0s.32.37.18.79l-.75,2.34a.8.8,0,0,1-.55.45H75.22c-.49,0-.6-.06-.44-.56Z" style="fill:#fff"></path><path d="M76,166l.37-1.16c.3-.92.87-.79,1.56-.79h5.74a2.69,2.69,0,0,0,2.6-2.06l.34-1.05a.46.46,0,0,0-.45-.66H81c-2.78,0-3.75-2.35-3.07-4.46l1.16-3.61c1.09-3.4,3.42-5.22,5.67-5.21L93,147c.82,0,1,.11.74,1l-4.54,14.13a6.72,6.72,0,0,1-6.3,5h-6.3C76.06,167.11,75.65,167.06,76,166Zm6.33-8.69h4.5a1.21,1.21,0,0,0,1.26-1L89.81,151c.24-.73-.07-1-.63-1H84.93a2.87,2.87,0,0,0-3,2.29L81.07,155C80.51,156.78,81.13,157.34,82.31,157.34Z" style="fill:#fff"></path><path d="M96.42,160.32c-.81,0-.8,0-1.28,0-.82,0-1-.1-.75-.95L98.08,148a1.18,1.18,0,0,1,1.36-1h1.13c.9,0,.56.64.33,1.35l-3.62,11.2C97.17,159.9,96.73,160.33,96.42,160.32ZM100,140.8c.13-.4.19-.66.84-.71.35,0,2,0,2.63,0s.31.37.18.79l-.76,2.35a.82.82,0,0,1-.55.45H99.69c-.49,0-.6-.06-.44-.56Z" style="fill:#fff"></path><path d="M102.73,155.61,106.45,144c.35-1.1.68-1.15,1.48-1.18l.93,0c.65,0,.8.32.62.87l-.84,2.69a.46.46,0,0,0,.43.66h4a.47.47,0,0,1,.46.66l-.52,1.61a1,1,0,0,1-.86.68h-4a1,1,0,0,0-.85.66l-1.6,5c-.37,1.13,0,1.66,1.1,1.66h3c.7,0,.93.16.65,1l-.3,1a1.09,1.09,0,0,1-1.22,1h-3.43C102.34,160.33,101.8,158.49,102.73,155.61Z" style="fill:#fff"></path><path d="M115,155.12c1.75-5.51.91-2.82,1.34-4.16a5.85,5.85,0,0,1,5.51-3.9c1.08,0,7.32,0,8.75,0,.9,0,.57.64.34,1.35l-3.63,11.2a1.18,1.18,0,0,1-1,.73h-1c-.56,0-.68-.5-.75-.76s-.26-.4-.82-.4a1.83,1.83,0,0,0-1.31.55,2.35,2.35,0,0,1-1.7.61h-2.44C115.52,160.34,113.93,158.52,115,155.12Zm4.14,2.27h5.27a.85.85,0,0,0,.84-.52l2.06-6.33c.13-.39-.16-.53-.52-.53h-5.53a2.23,2.23,0,0,0-2.29,1.76l-1.15,3.59C117.41,156.7,118,157.39,119.16,157.39Z" style="fill:#fff"></path><path d="M133.8,160.35c-.69,0-.88,0-1.29,0-.82,0-1-.1-.75-.94L137.7,141c.17-.52.37-1,1.37-1h1.13c.89,0,.56.63.33,1.34l-5.88,18.21A1.2,1.2,0,0,1,133.8,160.35Z" style="fill:#fff"></path><path d="M149,159.28c.32-.84,4.29-13,4.89-14.89.31-1,.62-1.53,1.57-1.53H165c3.05,0,3.85,1.74,3.12,4-.1.31-.11.42-.24.81a5,5,0,0,1-2.58,3.43c-.28.13-.83.26-.89.45s.34.29.57.36c1.16.45,1.7,1.32,1.09,3.25-.15.45-.28.79-.32.89a6.32,6.32,0,0,1-6,4.3H149.67A.73.73,0,0,1,149,159.28Zm4.6-2.19h6.88a2.41,2.41,0,0,0,2.25-1.71l.17-.53c.39-1.24-.16-1.66-1.58-1.71-.05,0-5.42,0-6.45,0-.46,0-.68.13-.94.92l-.76,2.38A.45.45,0,0,0,153.59,157.09Zm2.27-7.06h6.63a2.35,2.35,0,0,0,2-1.72l.15-.44c.4-1.24-.16-1.66-.82-1.69s-5.66-.06-6.7,0c-.46,0-.68.13-.93.92l-.74,2.29A.46.46,0,0,0,155.86,150Z" style="fill:url(#linear-gradient-11)"></path><path d="M183.41,147.1l1.28,0c.83,0,1,.11.75,1l-3.69,11.38a1.18,1.18,0,0,1-1.36,1h-1.13c-.64,0-.62-.45-.44-1l.23-.71c.1-.29.1-.77-.16-.77a7.93,7.93,0,0,0-1,.29c-.7.24-4.48,1.32-5,1.5a9.09,9.09,0,0,1-2.64.71h-.18c-1.2,0-1.57-.76-1.14-2.08l3.36-10.46c.1-.32.49-.74.8-.74l1.29,0c.83,0,1,.1.75.94l-2.52,7.83c-.27.84.38.9.93.77s6-1.77,6.36-2a3.62,3.62,0,0,0,1.05-2l1.53-4.77A1.23,1.23,0,0,1,183.41,147.1Z" style="fill:#fff"></path><path d="M186.63,160.38c-.67,0-.86-.18-.64-.87.16-.5.28-1,.43-1.42a.91.91,0,0,1,1-.68c.58,0,5.38,0,7.22,0,.29,0,.63,0,.71-.29s-.05-.39-.31-.55-3.85-2.43-4.86-3a2.86,2.86,0,0,1-1.48-3.19l.06-.21a4.57,4.57,0,0,1,4.42-3l7.11,0c.66,0,.85.21.64.87-.39,1.21-.1.39-.43,1.42a.9.9,0,0,1-1,.69c-.58,0-5.09,0-7.45,0a.49.49,0,0,0-.5.29.37.37,0,0,0,.17.5c.78.46,5.1,3.17,5.29,3.3a2.69,2.69,0,0,1,1.3,3.06l-.05.16a4.4,4.4,0,0,1-4.49,3Z" style="fill:#fff"></path><path d="M203.57,160.39c-.82,0-.8,0-1.28,0-.82,0-1-.11-.75-.95l3.69-11.38a1.18,1.18,0,0,1,1.36-1h1.13c.89,0,.56.64.33,1.35l-3.62,11.2A1.23,1.23,0,0,1,203.57,160.39Zm3.57-19.52c.13-.4.19-.66.84-.71.35,0,2,0,2.62,0s.32.37.19.79l-.76,2.35a.82.82,0,0,1-.55.45h-2.64c-.49,0-.6-.05-.44-.55Z" style="fill:#fff"></path><path d="M210.82,160.4l-1.29,0c-.83,0-1-.1-.75-.95l3.69-11.38c.17-.53.37-1,1.37-1H215c.64,0,.63.45.44,1l-.23.71c-.09.29-.09.76.16.76a8.57,8.57,0,0,0,1-.29c.69-.23,4.47-1.31,5-1.5a9.09,9.09,0,0,1,2.64-.71h.18c1.2,0,1.57.77,1.15,2.09l-3.37,10.46c-.1.31-.49.73-.8.73l-1.29,0c-.82,0-1-.11-.74-1l2.52-7.83c.27-.84-.38-.89-.94-.76s-6.05,1.76-6.36,2a3.65,3.65,0,0,0-1.05,2l-1.53,4.77A1.19,1.19,0,0,1,210.82,160.4Z" style="fill:#fff"></path><path d="M227.27,155.19l.92-2.87c1-3,3.39-5.14,5.67-5.22,2.81,0,3.25,0,5.34,0,2.56,0,3.46,1.9,2.54,4.69l-1,2.93a1,1,0,0,1-1,.79c-2.52,0-6.66,0-9.07,0a.81.81,0,0,0-.74.63c-.32,1,.62,1.35,1.59,1.35h7.58c.59,0,.73.45.52,1.09l-.34,1.08a1.21,1.21,0,0,1-1.28.78c-3.11,0-5.89,0-7.43,0C227.76,160.41,226.16,158.62,227.27,155.19Zm4.09-2.13h6.58a.68.68,0,0,0,.68-.52l.24-.74c.42-1.32-.15-1.77-1.33-1.77H234a2.81,2.81,0,0,0-2.89,2.13l-.12.4A.35.35,0,0,0,231.36,153.06Z" style="fill:#fff"></path><path d="M243.94,160.42c-.66,0-.86-.19-.64-.87.16-.5.29-1,.43-1.42a.91.91,0,0,1,1-.69c.58,0,5.38,0,7.23,0,.28,0,.62,0,.7-.29s-.05-.4-.3-.56-3.86-2.42-4.87-3a2.86,2.86,0,0,1-1.48-3.19l.07-.21a4.53,4.53,0,0,1,4.41-3l7.11,0c.67,0,.85.21.64.86-.39,1.22-.1.4-.43,1.43a.88.88,0,0,1-1,.68c-.58,0-5.09,0-7.45,0a.48.48,0,0,0-.5.29.38.38,0,0,0,.17.5c.78.45,5.11,3.17,5.29,3.3a2.68,2.68,0,0,1,1.3,3.06l-.05.16a4.37,4.37,0,0,1-4.48,3Z" style="fill:#fff"></path><path d="M259.38,160.43c-.67,0-.86-.19-.64-.87.16-.5.28-1,.43-1.42a.9.9,0,0,1,1-.69c.58,0,5.38,0,7.22,0,.28,0,.63,0,.71-.3s-.05-.39-.31-.55-3.85-2.43-4.86-3a2.89,2.89,0,0,1-1.49-3.19l.07-.21a4.55,4.55,0,0,1,4.42-3.06l7.11,0c.66,0,.85.22.64.87-.39,1.22-.1.4-.43,1.43a.89.89,0,0,1-1,.68c-.58,0-5.08,0-7.44,0a.48.48,0,0,0-.5.29.37.37,0,0,0,.17.5c.78.45,5.1,3.17,5.29,3.3a2.68,2.68,0,0,1,1.3,3.06l-.06.16a4.38,4.38,0,0,1-4.48,3Z" style="fill:#fff"></path><path d="M284.5,160.39c-.76,0-1-.24-.75-1,.43-1.34.07-.29.46-1.5a1.05,1.05,0,0,1,1.12-.79c.66,0,7.52,0,9.16,0a1.58,1.58,0,0,0,1.47-1.21c.24-.77-.35-1.13-.82-1.43-.66-.42-2.72-1.26-6.1-2.87-1.57-.77-2.15-2.22-1.53-4.17l.06-.18a6.05,6.05,0,0,1,5.82-4.32c1.71,0,7.85.06,8.08.06.77,0,1,.24.75,1-.43,1.34-.07.29-.46,1.5a1.05,1.05,0,0,1-1.12.79c-.61,0-6.27-.11-8.26-.11a1.76,1.76,0,0,0-1.69,1.19c-.25.76.1,1.1.77,1.42,1.76.82,4.2,1.82,6.35,2.95,1.44.77,2,2.09,1.38,3.91l-.09.29c-.88,2.74-2.64,4.56-5.91,4.5C290.87,160.42,284.79,160.39,284.5,160.39Z" style="fill:url(#linear-gradient-12)"></path><path d="M302.91,155.24l.92-2.87c1-3,3.32-5.22,6.19-5.22h5c2.87,0,3.79,2.24,2.83,5.22l-.92,2.87a7.05,7.05,0,0,1-6.67,5.21h-4C303.4,160.46,301.8,158.66,302.91,155.24Zm4.26,2.27h4.05a2.81,2.81,0,0,0,2.76-2l1-3.24c.5-1.56-.21-2.14-1.52-2.14h-3.84a2.81,2.81,0,0,0-2.89,2.13l-1,3.24C305.28,156.85,306,157.51,307.17,157.51Z" style="fill:#fff"></path><path d="M321.55,160.47c-.69,0-.87,0-1.28,0-.82,0-1-.1-.75-1l5.94-18.39c.17-.52.37-1,1.37-1H328c.9,0,.57.63.34,1.34l-5.88,18.21A1.22,1.22,0,0,1,321.55,160.47Z" style="fill:#fff"></path><path d="M341.62,147.2l1.29,0c.83,0,1,.11.75,1L340,159.51c-.17.52-.37,1-1.37,1h-1.12c-.64,0-.63-.45-.44-1l.23-.71c.09-.29.09-.77-.16-.77a8.57,8.57,0,0,0-1,.29c-.69.24-4.47,1.32-5,1.5a9.09,9.09,0,0,1-2.64.71h-.18c-1.2,0-1.57-.76-1.15-2.08l3.37-10.46c.1-.32.49-.74.8-.74l1.29,0c.82,0,1,.1.74,1l-2.52,7.82c-.27.84.38.9.94.76s6.05-1.76,6.36-2a3.62,3.62,0,0,0,1.05-2l1.53-4.77A1.19,1.19,0,0,1,341.62,147.2Z" style="fill:#fff"></path><path d="M345.41,155.77l3.73-11.57c.35-1.11.68-1.16,1.48-1.19l.93,0c.65,0,.79.31.62.87l-.84,2.69a.45.45,0,0,0,.43.65h4a.46.46,0,0,1,.45.66l-.51,1.6a1,1,0,0,1-.86.69h-4.05a1,1,0,0,0-.85.66l-1.6,5c-.37,1.14,0,1.66,1.1,1.67h3c.69,0,.92.15.64,1l-.29,1a1.09,1.09,0,0,1-1.22,1H348.1C345,160.48,344.49,158.64,345.41,155.77Z" style="fill:#fff"></path><path d="M358.62,160.49c-.82,0-.8,0-1.29,0-.82,0-1-.11-.75-1l3.69-11.39c.17-.52.37-1,1.37-1h1.12c.9,0,.57.63.34,1.35l-3.63,11.19A1.19,1.19,0,0,1,358.62,160.49ZM362.18,141c.13-.39.19-.65.85-.71.34,0,2,0,2.62,0s.31.37.18.79l-.75,2.34a.81.81,0,0,1-.56.45h-2.64c-.48,0-.59-.05-.43-.55Z" style="fill:#fff"></path><path d="M364.82,155.28l.93-2.87c1-3,3.32-5.22,6.18-5.22h5c2.87,0,3.79,2.25,2.83,5.22l-.92,2.88a7.05,7.05,0,0,1-6.67,5.21h-4.05C365.32,160.5,363.72,158.7,364.82,155.28Zm4.27,2.27h4.05a2.81,2.81,0,0,0,2.76-2.05l1-3.25c.5-1.55-.21-2.13-1.52-2.13h-3.84a2.8,2.8,0,0,0-2.89,2.13l-1,3.24C367.2,156.89,367.89,157.55,369.09,157.55Z" style="fill:#fff"></path><path d="M383.47,160.51l-1.29,0c-.82,0-1-.1-.74-.95l3.69-11.38c.16-.53.36-1,1.36-1h1.13c.64,0,.62.45.43,1l-.23.71c-.09.29-.09.76.17.76a7.93,7.93,0,0,0,1-.29c.69-.23,4.47-1.31,5-1.5a9.12,9.12,0,0,1,2.63-.71h.18c1.21,0,1.58.77,1.15,2.09l-3.36,10.46c-.11.31-.5.73-.8.73l-1.29,0c-.83,0-1-.11-.75-.95l2.52-7.83c.27-.84-.38-.89-.93-.76s-6,1.76-6.37,2a3.71,3.71,0,0,0-1,2l-1.54,4.77A1.19,1.19,0,0,1,383.47,160.51Z" style="fill:#fff"></path><path d="M399.44,160.52c-.66,0-.86-.19-.64-.87.16-.5.29-1,.44-1.43a.9.9,0,0,1,1-.68c.58,0,5.38,0,7.22,0,.28,0,.62,0,.71-.3s-.06-.39-.31-.55-3.86-2.43-4.87-3a2.87,2.87,0,0,1-1.48-3.19l.07-.21a4.55,4.55,0,0,1,4.41-3.06l7.11,0c.67,0,.86.22.65.87-.39,1.22-.11.4-.44,1.43a.89.89,0,0,1-1,.68c-.58,0-5.09,0-7.44,0a.49.49,0,0,0-.51.29.37.37,0,0,0,.18.5c.77.45,5.1,3.17,5.29,3.3a2.68,2.68,0,0,1,1.29,3.06l-.05.16a4.38,4.38,0,0,1-4.48,3Z" style="fill:#fff"></path></g></g></svg>